<?xml version="1.0" encoding="UTF-8" standalone="no"?>
<!DOCTYPE svg PUBLIC "-//W3C//DTD SVG 1.1//EN" "http://www.w3.org/Graphics/SVG/1.1/DTD/svg11.dtd">
<svg width="100%" height="100%" viewBox="0 0 2481 3508" version="1.1" xmlns="http://www.w3.org/2000/svg" xmlns:xlink="http://www.w3.org/1999/xlink" xml:space="preserve" xmlns:serif="http://www.serif.com/" style="fill-rule:evenodd;clip-rule:evenodd;stroke-linejoin:round;stroke-miterlimit:2;">
    <g transform="matrix(3.43825,0,0,3.43825,-1381.19,-2319.76)">
        <path d="M649.652,1263.02C619.655,1279.74 594.779,1294.38 578.342,1304.26L706.682,970.069L767.913,970.069L848.105,1166C832.094,1172.43 815.895,1179.39 799.765,1186.68L735.979,1015.19L649.652,1263.02ZM620.427,1346.92L602.093,1399.56L541.741,1399.56L553.578,1368.74C555.357,1370.13 558.29,1372.11 562.12,1373.54C574.219,1378.04 584.136,1373.64 585.874,1372.87C587.803,1372.01 589.544,1370.78 591.379,1369.74C593.685,1367.86 604.136,1359.47 620.427,1346.92ZM851.546,1190.96C853.388,1189.93 855.229,1188.91 857.067,1187.9L943.694,1399.56L878.948,1399.56L810.322,1215.06C824.072,1206.68 837.868,1198.59 851.546,1190.96Z" style="fill:rgb(37,37,37);"/>
    </g>
    <g transform="matrix(3.4348,0.154045,-0.154045,3.4348,-2930.38,-4559.87)">
        <path d="M1383.36,1782.3C1385.16,1781.19 1386.95,1780.09 1388.74,1778.99C1402.89,1770.36 1416.9,1762.29 1430.59,1754.97C1434.98,1754.23 1439.27,1753.62 1443.47,1753.12C1434.74,1758.05 1425.86,1763.34 1416.89,1768.93C1407.91,1772.08 1398.63,1775.73 1389.11,1779.8C1387.21,1780.61 1385.29,1781.45 1383.36,1782.3ZM1303.58,1794.83C1260.54,1817.74 1219.25,1842.12 1184.9,1863.33C1155.68,1881.37 1131.49,1897.12 1115.51,1907.72L1123.72,1883.08C1143.88,1871.94 1166.1,1860.02 1189.46,1848.08C1225.9,1829.44 1265.12,1810.73 1303.58,1794.83ZM1057.43,1994.26L1057.44,1994.25L1057.41,1994.27L1057.43,1994.26Z"/>
    </g>
    <g transform="matrix(3.43825,0,0,3.43825,-2983.57,-4466.99)">
        <path d="M1057.43,1994.26L1057.44,1994.25L1057.41,1994.27L1057.43,1994.26Z" style="fill:white;"/>
    </g>
    <g transform="matrix(3.43517,-0.145686,0.145686,3.43517,-3234.22,-4246.79)">
        <path d="M1008.71,1976.28C1008.4,1975.04 1008.13,1973.62 1007.97,1972.04L1008.04,1972.13C1008.28,1972.37 1008.88,1972.98 1009.8,1973.77C1011.52,1975.24 1014.36,1977.34 1018.13,1978.92C1030.03,1983.93 1040.12,1979.96 1041.89,1979.26C1043.85,1978.49 1045.65,1977.34 1047.52,1976.37C1049.91,1974.59 1060.7,1966.65 1077.51,1954.81C1089.59,1946.3 1104.77,1935.77 1122.16,1924.07C1165.51,1894.9 1218.92,1860.88 1272.82,1831.1C1286.92,1823.32 1301.04,1815.82 1315.03,1808.78C1316.92,1807.83 1318.8,1806.88 1320.68,1805.95C1335.52,1798.59 1350.18,1791.76 1364.46,1785.66C1388.31,1775.48 1411.08,1767.34 1431.8,1762.15C1457.49,1755.73 1471.46,1756.09 1472.1,1755.93C1472.61,1755.8 1473.2,1755.74 1473.58,1755.38C1474.2,1754.8 1474.21,1754.75 1474.23,1753.9C1474.26,1753.07 1474.23,1753.03 1473.66,1752.43C1473.67,1752.44 1473.68,1752.45 1473.69,1752.46C1474.29,1753.04 1474.31,1753.07 1474.32,1753.91C1474.34,1754.76 1474.33,1754.8 1473.73,1755.41C1473.37,1755.79 1472.79,1755.87 1472.28,1756.02C1471.64,1756.21 1457.67,1756.44 1432.29,1763.95C1415.17,1769.01 1396.71,1776.19 1377.45,1784.95C1368.32,1789.09 1359.02,1793.59 1349.6,1798.38C1340.83,1802.84 1331.96,1807.55 1323.03,1812.46C1307.35,1821.09 1291.5,1830.34 1275.7,1839.98C1223.34,1871.91 1171.67,1907.99 1129.78,1938.84C1098.78,1961.66 1075.07,1980.19 1063.94,1989.04C1060.57,1991.72 1058.35,1993.5 1057.43,1994.26C1055.59,1995.3 1053.85,1996.52 1051.92,1997.38C1050.18,1998.15 1040.27,2002.55 1028.17,1998.05C1022.28,1995.86 1018.51,1992.35 1017.8,1991.69C1017.78,1991.68 1013.62,1986.94 1013.61,1986.93C1012.56,1985.1 1011.33,1983.36 1010.47,1981.43C1010.18,1980.78 1009.36,1978.95 1008.71,1976.28ZM1057.43,1994.26L1057.44,1994.25L1057.41,1994.27L1057.43,1994.26Z" style="fill:rgb(42,126,231);"/>
    </g>
</svg>
