<svg width="55" height="48" viewBox="0 0 55 48" fill="none" xmlns="http://www.w3.org/2000/svg">
<path d="M26.6853 24.1938C27.1324 24.5759 27.8546 24.5759 28.3017 24.1938L54.6688 1.66191C55.1044 1.27002 55.093 0.652839 54.6459 0.280603C54.1988 -0.0818983 53.4995 -0.0818983 53.0524 0.280603L27.4992 22.117L1.94597 0.280511C1.48748 -0.101552 0.765248 -0.0917254 0.318152 0.300165C-0.106051 0.682228 -0.106051 1.27985 0.318152 1.66191L26.6853 24.1938Z" fill="#929292"/>
<path d="M54.6575 22.8126C54.1989 22.4404 53.4997 22.4404 53.0526 22.8126L27.4994 44.649L1.94617 22.8126C1.48758 22.4404 0.765345 22.4501 0.329749 22.8322C-0.0944541 23.2142 -0.0944541 23.8119 0.329749 24.1939L26.6969 46.7258C27.144 47.1079 27.8662 47.1079 28.3133 46.7258L54.6804 24.1939C55.116 23.802 55.1046 23.1849 54.6575 22.8126Z" fill="#929292"/>
</svg>
